# xmcd
#
# Track frame offsets:
#	150
#	19015
#	35830
#	54965
#	68212
#	82150
#	98757
#	116725
#	132262
#	149037
#	165297
#
# Disc length: 2447 seconds
#
# Revision: 1
# Processed by: cddbd v1.4PL0 Copyright (c) Steve Scherf et al.
# Submitted via: audiograbber 1.82.02
#
DISCID=98098d0b
DTITLE=Chalee TENNISON - Parading in the rain
DYEAR=2003
DGENRE=Country
TTITLE0=I am love
TTITLE1=Raining on my parade
TTITLE2=Easy lovin' you
TTITLE3=Lonesome road
TTITLE4=The mind of this woman
TTITLE5=Me and Mexico
TTITLE6=I am pretty
TTITLE7=Cheater's road
TTITLE8=Where to this than that
TTITLE9=Believe
TTITLE10=Peace
EXTD=
EXTT0=
EXTT1=
EXTT2=
EXTT3=
EXTT4=
EXTT5=
EXTT6=
EXTT7=
EXTT8=
EXTT9=
EXTT10=
PLAYORDER=
